<?xml version="1.0" standalone="no"?>
<!DOCTYPE svg PUBLIC "-//W3C//DTD SVG 20010904//EN"
 "http://www.w3.org/TR/2001/REC-SVG-20010904/DTD/svg10.dtd">
<svg version="1.0" xmlns="http://www.w3.org/2000/svg"
 width="287.000000pt" height="351.000000pt" viewBox="0 0 287.000000 351.000000"
 preserveAspectRatio="xMidYMid meet">

<g transform="translate(0.000000,351.000000) scale(0.100000,-0.100000)"
fill="#000000" stroke="none">
<path d="M2080 3410 l0 -100 -640 0 -640 0 0 95 0 95 -75 0 -75 0 0 -95 0 -95
-132 0 c-112 0 -140 -4 -178 -21 -60 -27 -79 -45 -106 -104 l-24 -50 0 -1063
c0 -1163 -3 -1101 58 -1166 15 -16 45 -37 67 -47 38 -18 90 -19 1110 -19 1020
0 1072 1 1110 19 22 10 52 31 67 47 61 65 58 2 58 1171 0 1017 -1 1070 -19
1109 -22 49 -78 97 -130 113 -21 6 -97 11 -170 11 l-131 0 0 100 0 100 -75 0
-75 0 0 -100z m450 -395 l0 -155 -1090 0 -1090 0 0 155 0 155 1090 0 1090 0 0
-155z m0 -1155 l0 -870 -1090 0 -1090 0 0 870 0 870 1090 0 1090 0 0 -870z"/>
<path d="M1073 2131 l-49 -299 127 -17 127 -18 41 34 c35 28 52 34 104 37 52
3 67 0 97 -20 49 -33 70 -80 70 -158 -1 -129 -57 -194 -163 -187 -49 3 -62 8
-92 37 -20 19 -40 50 -46 70 l-11 36 -141 -16 c-96 -10 -142 -19 -145 -28 -8
-26 58 -140 109 -186 62 -56 137 -85 253 -98 293 -32 489 92 527 336 26 166
-59 319 -210 377 -78 30 -214 30 -291 0 -30 -11 -56 -21 -58 -21 -2 0 -1 12 2
28 3 15 10 53 16 85 l11 57 245 0 244 0 0 125 0 125 -358 0 -359 0 -50 -299z"/>
</g>
</svg>
