<svg xmlns="http://www.w3.org/2000/svg" width="382.667" height="466.667" preserveAspectRatio="xMidYMid meet" version="1.0" viewBox="0 0 287 350"><g fill="#000" stroke="none"><path d="M2070 3400 l0 -100 -640 0 -640 0 0 95 0 95 -70 0 -70 0 0 -95 0 -95 -137 0 c-117 0 -145 -4 -183 -21 -60 -27 -79 -45 -106 -104 l-24 -50 0 -1063 c0 -1163 -3 -1101 58 -1166 15 -16 45 -37 67 -47 38 -18 90 -19 1110 -19 1020 0 1072 1 1110 19 22 10 52 31 67 47 61 65 58 2 58 1171 0 1017 -1 1070 -19 1109 -22 49 -78 97 -130 113 -21 6 -97 11 -170 11 l-131 0 0 100 0 100 -75 0 -75 0 0 -100z m450 -395 l0 -155 -1085 0 -1085 0 0 155 0 155 1085 0 1085 0 0 -155z m0 -1149 l0 -864 -31 -6 c-41 -8 -2052 -8 -2101 0 l-38 7 0 863 0 864 1085 0 1085 0 0 -864z" transform="translate(0.000000,350.000000) scale(0.100000,-0.100000)"/><path d="M990 2295 l0 -125 265 0 c146 0 265 -2 265 -5 0 -3 -24 -38 -54 -78 -151 -202 -236 -409 -279 -679 l-14 -88 147 0 147 0 7 73 c28 287 148 560 332 756 l74 79 0 96 0 96 -445 0 -445 0 0 -125z" transform="translate(0.000000,350.000000) scale(0.100000,-0.100000)"/></g></svg>